<?xml version="1.0" encoding="UTF-8" standalone="no"?><!DOCTYPE svg PUBLIC "-//W3C//DTD SVG 1.1//EN" "http://www.w3.org/Graphics/SVG/1.1/DTD/svg11.dtd"><svg width="100%" height="100%" viewBox="0 0 952 149" version="1.1" xmlns="http://www.w3.org/2000/svg" xmlns:xlink="http://www.w3.org/1999/xlink" xml:space="preserve" xmlns:serif="http://www.serif.com/" style="fill-rule:evenodd;clip-rule:evenodd;stroke-linejoin:round;stroke-miterlimit:2;"><g><path d="M211.443,37.226l30.088,0c6.785,0 11.957,0.519 15.516,1.557c4.783,1.409 8.88,3.912 12.291,7.508c3.411,3.596 6.007,7.999 7.786,13.209c1.78,5.209 2.67,11.632 2.67,19.27c0,6.711 -0.834,12.495 -2.503,17.352c-2.039,5.932 -4.949,10.734 -8.731,14.404c-2.855,2.781 -6.711,4.95 -11.568,6.507c-3.634,1.15 -8.491,1.725 -14.571,1.725l-30.978,0l0,-81.532Zm16.462,13.792l0,54.003l12.291,0c4.598,0 7.916,-0.26 9.955,-0.779c2.67,-0.667 4.885,-1.798 6.646,-3.393c1.761,-1.594 3.198,-4.217 4.31,-7.869c1.113,-3.652 1.669,-8.63 1.669,-14.933c0,-6.303 -0.556,-11.141 -1.669,-14.515c-1.112,-3.374 -2.669,-6.007 -4.671,-7.898c-2.002,-1.891 -4.542,-3.17 -7.62,-3.837c-2.298,-0.519 -6.803,-0.779 -13.514,-0.779l-7.397,0Z" style="fill:#1d4775;fill-rule:nonzero;"/><path d="M293.642,37.226l16.462,0l0,44.158c0,7.008 0.204,11.55 0.612,13.626c0.704,3.337 2.382,6.016 5.033,8.036c2.651,2.021 6.275,3.031 10.873,3.031c4.672,0 8.194,-0.954 10.567,-2.864c2.373,-1.909 3.8,-4.254 4.282,-7.035c0.482,-2.781 0.723,-7.397 0.723,-13.848l0,-45.104l16.462,0l0,42.823c0,9.789 -0.445,16.703 -1.335,20.745c-0.889,4.041 -2.53,7.452 -4.921,10.233c-2.392,2.781 -5.59,4.996 -9.594,6.646c-4.004,1.65 -9.232,2.475 -15.684,2.475c-7.786,0 -13.69,-0.899 -17.713,-2.697c-4.023,-1.799 -7.202,-4.135 -9.538,-7.008c-2.336,-2.873 -3.874,-5.886 -4.616,-9.037c-1.075,-4.672 -1.613,-11.568 -1.613,-20.689l0,-43.491Z" style="fill:#1d4775;fill-rule:nonzero;"/><path d="M376.008,118.758l0,-81.532l26.417,0c10.011,0 16.537,0.408 19.577,1.223c4.671,1.224 8.583,3.884 11.735,7.981c3.151,4.097 4.727,9.39 4.727,15.878c0,5.006 -0.908,9.214 -2.725,12.625c-1.817,3.411 -4.125,6.09 -6.924,8.036c-2.8,1.947 -5.645,3.235 -8.537,3.865c-3.93,0.779 -9.622,1.168 -17.074,1.168l-10.734,0l0,30.756l-16.462,0Zm16.462,-67.74l0,23.136l9.01,0c6.488,0 10.826,-0.426 13.014,-1.279c2.187,-0.853 3.902,-2.187 5.144,-4.004c1.242,-1.817 1.863,-3.93 1.863,-6.34c0,-2.967 -0.871,-5.414 -2.614,-7.342c-1.742,-1.928 -3.948,-3.133 -6.618,-3.615c-1.965,-0.37 -5.914,-0.556 -11.846,-0.556l-7.953,0Z" style="fill:#1d4775;fill-rule:nonzero;"/><path d="M452.423,118.758l0,-80.865l16.462,0l0,67.128l40.933,0l0,13.737l-57.395,0Z" style="fill:#1d4775;fill-rule:nonzero;"/><rect x="521.052" y="37.226" width="16.462" height="81.532" style="fill:#1d4775;fill-rule:nonzero;"/><path d="M605.365,88.781l15.961,5.061c-2.447,8.898 -6.516,15.507 -12.207,19.827c-5.691,4.319 -12.912,6.479 -21.662,6.479c-10.827,0 -19.725,-3.699 -26.696,-11.095c-6.97,-7.397 -10.455,-17.51 -10.455,-30.338c0,-13.57 3.504,-24.11 10.511,-31.618c7.008,-7.508 16.221,-11.262 27.641,-11.262c9.973,0 18.075,2.948 24.304,8.843c3.707,3.485 6.488,8.491 8.342,15.016l-16.295,3.893c-0.964,-4.226 -2.976,-7.563 -6.035,-10.01c-3.058,-2.447 -6.775,-3.671 -11.15,-3.671c-6.044,0 -10.947,2.169 -14.711,6.507c-3.763,4.338 -5.645,11.364 -5.645,21.078c0,10.307 1.854,17.649 5.562,22.024c3.708,4.375 8.528,6.562 14.46,6.562c4.375,0 8.138,-1.39 11.29,-4.171c3.151,-2.781 5.413,-7.156 6.785,-13.125Z" style="fill:#1d4775;fill-rule:nonzero;"/><path d="M708.976,118.758l-17.908,0l-7.119,-18.52l-32.59,0l-6.73,18.52l-17.463,0l31.756,-81.532l17.408,0l32.646,81.532Zm-30.31,-32.257l-11.235,-30.255l-11.012,30.255l22.247,0Z" style="fill:#1d4775;fill-rule:nonzero;"/><path d="M727.607,118.758l0,-67.74l-24.193,0l0,-13.792l64.792,0l0,13.792l-24.137,0l0,67.74l-16.462,0Z" style="fill:#1d4775;fill-rule:nonzero;"/><rect x="778.328" y="37.226" width="16.462" height="81.532" style="fill:#1d4775;fill-rule:nonzero;"/><path d="M828.559,84.665l13.628,0c2.698,0 4.709,0.112 6.035,0.337c1.326,0.225 2.512,0.694 3.558,1.407c1.047,0.713 1.919,1.663 2.616,2.849c0.698,1.186 1.047,2.515 1.047,3.988c0,1.597 -0.43,3.062 -1.291,4.395c-0.86,1.334 -2.027,2.334 -3.5,3c2.078,0.605 3.675,1.636 4.791,3.093c1.116,1.458 1.674,3.171 1.674,5.14c0,1.55 -0.36,3.058 -1.081,4.523c-0.721,1.465 -1.705,2.636 -2.954,3.512c-1.248,0.876 -2.786,1.414 -4.616,1.616c-1.147,0.124 -3.914,0.201 -8.302,0.233l-11.605,0l0,-34.093Zm6.884,5.674l0,7.884l4.512,0c2.682,0 4.348,-0.039 5,-0.116c1.178,-0.14 2.104,-0.547 2.779,-1.221c0.674,-0.675 1.011,-1.562 1.011,-2.663c0,-1.054 -0.29,-1.911 -0.872,-2.57c-0.581,-0.659 -1.446,-1.058 -2.593,-1.198c-0.682,-0.077 -2.643,-0.116 -5.883,-0.116l-3.954,0Zm0,13.558l0,9.116l6.372,0c2.481,0 4.054,-0.069 4.721,-0.209c1.023,-0.186 1.857,-0.639 2.5,-1.36c0.643,-0.721 0.965,-1.686 0.965,-2.896c0,-1.023 -0.248,-1.891 -0.744,-2.604c-0.496,-0.713 -1.213,-1.233 -2.151,-1.558c-0.938,-0.326 -2.973,-0.489 -6.105,-0.489l-5.558,0Z" style="fill:#6c7993;fill-rule:nonzero;"/><path d="M862.931,118.758l0,-34.093l25.279,0l0,5.767l-18.395,0l0,7.558l17.116,0l0,5.744l-17.116,0l0,9.279l19.046,0l0,5.745l-25.93,0Z" style="fill:#6c7993;fill-rule:nonzero;"/><path d="M902.373,118.758l0,-28.326l-10.117,0l0,-5.767l27.093,0l0,5.767l-10.093,0l0,28.326l-6.883,0Z" style="fill:#6c7993;fill-rule:nonzero;"/><path d="M951,118.758l-7.488,0l-2.977,-7.745l-13.628,0l-2.814,7.745l-7.302,0l13.279,-34.093l7.279,0l13.651,34.093Zm-12.674,-13.489l-4.698,-12.651l-4.605,12.651l9.303,0Z" style="fill:#6c7993;fill-rule:nonzero;"/><path d="M115.651,62.474c1.803,0.142 2.337,0.359 3.321,0.797c2.986,1.329 5.163,4.311 5.507,7.58c0.045,0.433 0.04,0.543 0.051,0.979l0,40.925c-0.061,9.85 -8.627,18.791 -18.854,18.854l-57.123,0c-1.596,-0.042 -2.04,-0.181 -2.895,-0.459c-3.423,-1.112 -6.045,-4.333 -6.423,-7.931c-0.046,-0.434 -0.04,-0.544 -0.051,-0.979l0,-50.41c0.042,-1.596 0.18,-2.04 0.458,-2.895c1.112,-3.423 4.333,-6.045 7.931,-6.423c0.434,-0.045 0.544,-0.04 0.98,-0.051l66.608,0c0.163,0.004 0.327,0.008 0.49,0.013Zm-57.729,18.725l0,31.672c15.899,0 31.798,0 47.696,0c0.096,0 0.173,-0.063 0.174,-0.174l0,-31.498l-47.87,0Z" style="fill:#fff;"/><path d="M115.161,71.83l-66.608,0l0,50.41l57.605,0c4.972,0 9.003,-4.031 9.003,-9.003l0,-41.407Z" style="fill:#65b1dd;"/><path d="M64.797,71.985c9.481,0.176 17.968,8.373 18.15,18.15c0.068,10.882 0.001,21.764 0.001,32.646c-0.059,9.538 -8.272,18.165 -18.15,18.349c-15.102,0.095 -30.205,0.002 -45.307,0.002c-9.52,-0.06 -18.165,-8.272 -18.348,-18.152c-0.068,-10.882 -0.002,-21.764 -0.002,-32.646c0.06,-9.523 8.271,-18.166 18.152,-18.349c15.168,-0.095 30.336,-0.095 45.504,0Zm-44.917,18.737l0,31.671l44.33,0l0,-31.671l-44.33,0Z" style="fill:#fff;"/><path d="M73.579,89.879c0,-2.261 -0.898,-4.43 -2.497,-6.029c-1.599,-1.599 -3.768,-2.497 -6.029,-2.497l-46.016,0c-2.261,0 -4.43,0.898 -6.029,2.497c-1.599,1.599 -2.497,3.768 -2.497,6.029l0,33.357c0,2.261 0.898,4.43 2.497,6.029c1.599,1.599 3.768,2.497 6.029,2.497l46.016,0c2.261,0 4.43,-0.898 6.029,-2.497c1.599,-1.599 2.497,-3.768 2.497,-6.029l0,-33.357Z" style="fill:#336697;"/><path d="M129.664,7.944c9.443,0.18 17.853,8.36 18.037,18.037c0.117,18.449 0.001,36.899 0.001,55.348c-0.06,9.468 -8.09,18.051 -18.038,18.24c-24.634,0.155 -49.269,0.002 -73.904,0.002c-9.491,-0.06 -18.054,-8.206 -18.24,-18.038c-0.117,-18.449 -0.002,-36.899 -0.002,-55.348c0.06,-9.46 8.207,-18.054 18.038,-18.241c24.702,-0.156 49.406,-0.156 74.108,0Zm-73.407,18.737l0,54.151l72.707,0l0,-54.151l-72.707,0Z" style="fill:#fff;"/><path d="M138.333,25.737c0,-4.653 -3.772,-8.425 -8.424,-8.425c-17.412,0 -57.186,0 -74.597,0c-4.653,0 -8.424,3.772 -8.424,8.425c0,14.027 0,42.013 0,56.04c0,4.653 3.771,8.424 8.424,8.424c17.411,0 57.185,0 74.597,0c4.652,0 8.424,-3.771 8.424,-8.424c0,-14.027 0,-42.013 0,-56.04Z" style="fill:#1d4775;"/></g></svg>