<?xml version="1.0" encoding="UTF-8" standalone="no"?><!DOCTYPE svg PUBLIC "-//W3C//DTD SVG 1.1//EN" "http://www.w3.org/Graphics/SVG/1.1/DTD/svg11.dtd"><svg width="100%" height="100%" viewBox="0 0 800 180" version="1.1" xmlns="http://www.w3.org/2000/svg" xmlns:xlink="http://www.w3.org/1999/xlink" xml:space="preserve" xmlns:serif="http://www.serif.com/" style="fill-rule:evenodd;clip-rule:evenodd;stroke-linejoin:round;stroke-miterlimit:2;"><g><g><g><path d="M214.381,35.794l29.944,0c6.753,0 11.9,0.516 15.442,1.549c4.76,1.403 8.838,3.894 12.233,7.472c3.394,3.579 5.978,7.961 7.749,13.147c1.771,5.184 2.657,11.576 2.657,19.178c0,6.679 -0.83,12.435 -2.491,17.269c-2.03,5.904 -4.926,10.683 -8.69,14.335c-2.841,2.768 -6.679,4.927 -11.512,6.476c-3.617,1.145 -8.451,1.717 -14.502,1.717l-30.83,0l0,-81.143Zm16.383,13.726l0,53.746l12.233,0c4.576,0 7.878,-0.259 9.907,-0.776c2.657,-0.663 4.862,-1.789 6.614,-3.376c1.753,-1.587 3.183,-4.197 4.29,-7.832c1.108,-3.635 1.661,-8.589 1.661,-14.862c0,-6.273 -0.553,-11.088 -1.661,-14.446c-1.107,-3.358 -2.656,-5.978 -4.649,-7.86c-1.992,-1.882 -4.52,-3.155 -7.584,-3.819c-2.287,-0.516 -6.77,-0.775 -13.449,-0.775l-7.362,0Z" style="fill:#fff;fill-rule:nonzero;"/><path d="M296.188,35.794l16.383,0l0,43.947c0,6.975 0.203,11.495 0.61,13.561c0.7,3.321 2.37,5.988 5.009,7.998c2.638,2.011 6.245,3.017 10.821,3.017c4.649,0 8.155,-0.95 10.516,-2.851c2.362,-1.9 3.782,-4.233 4.262,-7.001c0.48,-2.768 0.72,-7.362 0.72,-13.782l0,-44.889l16.383,0l0,42.619c0,9.742 -0.443,16.623 -1.329,20.646c-0.884,4.022 -2.517,7.416 -4.897,10.184c-2.381,2.768 -5.563,4.972 -9.548,6.614c-3.985,1.642 -9.188,2.464 -15.61,2.464c-7.749,0 -13.624,-0.895 -17.628,-2.685c-4.004,-1.79 -7.168,-4.115 -9.493,-6.974c-2.325,-2.86 -3.855,-5.858 -4.594,-8.994c-1.07,-4.65 -1.605,-11.513 -1.605,-20.591l0,-43.283Z" style="fill:#fff;fill-rule:nonzero;"/><path d="M378.161,116.937l0,-81.143l26.292,0c9.963,0 16.458,0.406 19.483,1.217c4.649,1.218 8.542,3.865 11.679,7.943c3.136,4.077 4.705,9.345 4.705,15.802c0,4.982 -0.904,9.17 -2.712,12.565c-1.809,3.395 -4.106,6.061 -6.891,7.998c-2.787,1.937 -5.618,3.219 -8.497,3.846c-3.911,0.776 -9.576,1.163 -16.992,1.163l-10.683,0l0,30.609l-16.384,0Zm16.384,-67.417l0,23.026l8.967,0c6.457,0 10.774,-0.424 12.952,-1.273c2.177,-0.849 3.883,-2.177 5.12,-3.985c1.236,-1.808 1.854,-3.911 1.854,-6.31c0,-2.953 -0.867,-5.388 -2.602,-7.307c-1.734,-1.919 -3.929,-3.118 -6.586,-3.598c-1.956,-0.368 -5.886,-0.553 -11.79,-0.553l-7.915,0Z" style="fill:#fff;fill-rule:nonzero;"/><path d="M454.212,116.937l0,-80.48l16.384,0l0,66.809l40.738,0l0,13.671l-57.122,0Z" style="fill:#fff;fill-rule:nonzero;"/><rect x="522.514" y="35.794" width="16.384" height="81.144" style="fill:#fff;"/><path d="M606.426,87.103l15.885,5.037c-2.436,8.855 -6.485,15.433 -12.149,19.732c-5.664,4.299 -12.851,6.449 -21.559,6.449c-10.775,0 -19.631,-3.682 -26.569,-11.043c-6.937,-7.361 -10.405,-17.426 -10.405,-30.193c0,-13.505 3.487,-23.995 10.461,-31.467c6.974,-7.473 16.144,-11.209 27.509,-11.209c9.926,0 17.989,2.934 24.188,8.801c3.69,3.469 6.457,8.451 8.303,14.945l-16.218,3.874c-0.959,-4.206 -2.962,-7.527 -6.006,-9.962c-3.043,-2.436 -6.743,-3.654 -11.097,-3.654c-6.015,0 -10.895,2.159 -14.641,6.476c-3.745,4.318 -5.618,11.31 -5.618,20.978c0,10.258 1.845,17.565 5.536,21.919c3.69,4.354 8.487,6.531 14.391,6.531c4.354,0 8.099,-1.384 11.236,-4.152c3.136,-2.767 5.387,-7.121 6.753,-13.062Z" style="fill:#fff;fill-rule:nonzero;"/><path d="M709.543,116.937l-17.823,0l-7.085,-18.432l-32.435,0l-6.697,18.432l-17.38,0l31.604,-81.143l17.325,0l32.491,81.143Zm-30.166,-32.103l-11.181,-30.111l-10.96,30.111l22.141,0Z" style="fill:#fff;fill-rule:nonzero;"/><path d="M728.085,116.937l0,-67.417l-24.078,0l0,-13.726l64.484,0l0,13.726l-24.022,0l0,67.417l-16.384,0Z" style="fill:#fff;fill-rule:nonzero;"/><rect x="778.564" y="35.794" width="16.384" height="81.144" style="fill:#fff;"/></g><g><path d="M673.09,139.535l13.564,0c2.685,0 4.686,0.111 6.006,0.335c1.319,0.224 2.5,0.691 3.541,1.4c1.042,0.71 1.91,1.655 2.603,2.836c0.695,1.18 1.042,2.503 1.042,3.969c0,1.589 -0.428,3.047 -1.284,4.374c-0.856,1.328 -2.018,2.323 -3.484,2.986c2.068,0.602 3.658,1.628 4.768,3.078c1.111,1.451 1.666,3.156 1.666,5.115c0,1.543 -0.358,3.044 -1.075,4.502c-0.718,1.458 -1.697,2.623 -2.94,3.495c-1.242,0.872 -2.773,1.407 -4.594,1.608c-1.142,0.124 -3.896,0.2 -8.263,0.232l-11.55,0l0,-33.93Zm6.852,5.647l0,7.846l4.49,0c2.669,0 4.327,-0.039 4.976,-0.115c1.173,-0.14 2.094,-0.545 2.766,-1.216c0.671,-0.671 1.006,-1.554 1.006,-2.65c0,-1.049 -0.288,-1.902 -0.868,-2.558c-0.578,-0.655 -1.439,-1.053 -2.58,-1.192c-0.679,-0.076 -2.631,-0.115 -5.855,-0.115l-3.935,0Zm0,13.493l0,9.073l6.341,0c2.469,0 4.035,-0.069 4.699,-0.208c1.018,-0.185 1.848,-0.636 2.488,-1.354c0.64,-0.717 0.96,-1.678 0.96,-2.882c0,-1.018 -0.247,-1.882 -0.74,-2.592c-0.494,-0.709 -1.207,-1.227 -2.141,-1.55c-0.933,-0.325 -2.959,-0.487 -6.076,-0.487l-5.531,0Z" style="fill:#8cb1d9;fill-rule:nonzero;"/><path d="M707.299,173.465l0,-33.93l25.158,0l0,5.739l-18.307,0l0,7.522l17.034,0l0,5.717l-17.034,0l0,9.235l18.955,0l0,5.717l-25.806,0Z" style="fill:#8cb1d9;fill-rule:nonzero;"/><path d="M746.553,173.465l0,-28.191l-10.069,0l0,-5.739l26.964,0l0,5.739l-10.045,0l0,28.191l-6.85,0Z" style="fill:#8cb1d9;fill-rule:nonzero;"/><path d="M794.948,173.465l-7.452,0l-2.963,-7.708l-13.563,0l-2.801,7.708l-7.267,0l13.216,-33.93l7.244,0l13.586,33.93Zm-12.614,-13.424l-4.675,-12.591l-4.583,12.591l9.258,0Z" style="fill:#8cb1d9;fill-rule:nonzero;"/></g><g><path d="M119.045,60.921c1.794,0.142 2.326,0.358 3.305,0.794c2.972,1.322 5.139,4.29 5.481,7.543c0.045,0.431 0.04,0.541 0.051,0.975l0,40.73c-0.061,9.803 -8.586,18.701 -18.765,18.764l-56.85,0c-1.589,-0.042 -2.031,-0.18 -2.882,-0.457c-3.406,-1.107 -6.016,-4.312 -6.392,-7.893c-0.046,-0.432 -0.04,-0.541 -0.051,-0.974l0,-50.17c0.042,-1.589 0.179,-2.031 0.456,-2.881c1.107,-3.407 4.312,-6.017 7.893,-6.393c0.432,-0.045 0.542,-0.04 0.976,-0.051l66.29,0c0.163,0.004 0.326,0.008 0.488,0.013Zm-57.454,18.636l0,31.521l47.469,0c0.095,0 0.172,-0.062 0.173,-0.173l0,-31.348l-47.642,0Z" style="fill:#fff;"/><path d="M118.557,70.233l-66.29,0l0,50.17l57.33,0c4.948,0 8.96,-4.012 8.96,-8.961l0,-41.209Z" style="fill:#65b1dd;"/><path d="M68.433,70.387c9.436,0.175 17.883,8.333 18.064,18.064c0.067,10.83 0.001,21.66 0.001,32.49c-0.059,9.493 -8.233,18.078 -18.064,18.262c-15.03,0.094 -30.061,0.002 -45.091,0.002c-9.475,-0.06 -18.078,-8.233 -18.26,-18.066c-0.068,-10.83 -0.002,-21.66 -0.002,-32.49c0.059,-9.478 8.231,-18.08 18.065,-18.262c15.096,-0.095 30.192,-0.095 45.287,0Zm-44.703,18.648l0,31.52l44.119,0l0,-31.52l-44.119,0Z" style="fill:#fff;"/><path d="M77.173,88.196c0,-2.25 -0.893,-4.409 -2.485,-6.001c-1.591,-1.591 -3.75,-2.485 -6,-2.485l-45.797,0c-2.25,0 -4.409,0.894 -6,2.485c-1.591,1.592 -2.485,3.751 -2.485,6.001l0,33.198c0,2.25 0.894,4.409 2.485,6c1.591,1.591 3.75,2.485 6,2.485l45.797,0c2.25,0 4.409,-0.894 6,-2.485c1.592,-1.591 2.485,-3.75 2.485,-6l0,-33.198Z" style="fill:#336697;"/><path d="M132.991,6.651c9.398,0.179 17.768,8.32 17.951,17.951c0.117,18.361 0.001,36.723 0.001,55.085c-0.059,9.422 -8.051,17.964 -17.952,18.153c-24.516,0.154 -49.034,0.002 -73.552,0.002c-9.445,-0.06 -17.968,-8.167 -18.153,-17.952c-0.116,-18.362 -0.002,-36.724 -0.002,-55.085c0.06,-9.415 8.168,-17.968 17.952,-18.154c24.585,-0.155 49.171,-0.155 73.755,0Zm-73.057,18.648l0,53.893l72.361,0l0,-53.893l-72.361,0Z" style="fill:#fff;"/><path d="M141.619,24.359c0,-4.63 -3.754,-8.384 -8.384,-8.384l-74.242,0c-4.63,0 -8.383,3.754 -8.383,8.384l0,55.773c0,4.631 3.753,8.384 8.383,8.384l74.242,0c4.63,0 8.384,-3.753 8.384,-8.384l0,-55.773Z" style="fill:#1d4775;"/></g></g></g></svg>